<?xml version="1.0" encoding="UTF-8" standalone="no"?>
<!-- Created with Inkscape (http://www.inkscape.org/) -->

<svg
   xmlns:dc="http://purl.org/dc/elements/1.1/"
   xmlns:cc="http://creativecommons.org/ns#"
   xmlns:rdf="http://www.w3.org/1999/02/22-rdf-syntax-ns#"
   xmlns:svg="http://www.w3.org/2000/svg"
   xmlns="http://www.w3.org/2000/svg"
   xmlns:sodipodi="http://sodipodi.sourceforge.net/DTD/sodipodi-0.dtd"
   xmlns:inkscape="http://www.inkscape.org/namespaces/inkscape"
   width="26.998718mm"
   height="10.853175mm"
   viewBox="0 0 26.998718 10.853175"
   version="1.1"
   id="svg8"
   sodipodi:docname="zetalabs_logo.svg"
   inkscape:version="0.92.4 (unknown)">
  <defs
     id="defs2" />
  <sodipodi:namedview
     id="base"
     pagecolor="#ffffff"
     bordercolor="#666666"
     borderopacity="1.0"
     inkscape:pageopacity="0.0"
     inkscape:pageshadow="2"
     inkscape:zoom="5.6"
     inkscape:cx="81.751049"
     inkscape:cy="18.207813"
     inkscape:document-units="mm"
     inkscape:current-layer="layer1"
     showgrid="false"
     fit-margin-top="0.5"
     fit-margin-bottom="0.5"
     fit-margin-left="0.5"
     fit-margin-right="0.5"
     inkscape:window-width="1920"
     inkscape:window-height="1016"
     inkscape:window-x="0"
     inkscape:window-y="27"
     inkscape:window-maximized="1"
     inkscape:snap-bbox="true"
     inkscape:bbox-paths="false"
     inkscape:bbox-nodes="true" />
  <metadata
     id="metadata5">
    <rdf:RDF>
      <cc:Work
         rdf:about="">
        <dc:format>image/svg+xml</dc:format>
        <dc:type
           rdf:resource="http://purl.org/dc/dcmitype/StillImage" />
        <dc:title></dc:title>
      </cc:Work>
    </rdf:RDF>
  </metadata>
  <g
     inkscape:label="Layer 1"
     inkscape:groupmode="layer"
     id="layer1"
     transform="translate(-13.782091,-62.002781)">
    <g
       id="g970">
      <g
         aria-label="labs"
         transform="matrix(0.22847185,0,0,0.21762438,7.2785029,12.841402)"
         style="font-style:normal;font-weight:normal;font-size:40px;line-height:1.25;font-family:sans-serif;letter-spacing:0px;word-spacing:0px;fill:#000000;fill-opacity:1;stroke:none"
         id="flowRoot3713-3">
        <path
           d="m 61.914011,261.52035 q -1.834667,0 -3.328,-0.98133 -1.450667,-1.024 -2.261334,-2.816 -0.810666,-1.83467 -0.810666,-4.096 v -23.296 q 0,-0.93867 0.597333,-1.536 0.597333,-0.59734 1.536,-0.59734 0.938667,0 1.536,0.59734 0.597333,0.59733 0.597333,1.536 v 23.296 q 0,1.57866 0.597334,2.60266 0.597333,1.024 1.536,1.024 h 1.066666 q 0.853334,0 1.365334,0.59734 0.554666,0.59733 0.554666,1.536 0,0.93866 -0.810666,1.536 -0.810667,0.59733 -2.090667,0.59733 z"
           style="font-style:normal;font-variant:normal;font-weight:bold;font-stretch:normal;font-size:42.66666794px;font-family:Comfortaa;-inkscape-font-specification:'Comfortaa Bold';fill:#800000"
           id="path840" />
        <path
           d="m 78.532011,238.01102 q 3.285334,0 5.930667,1.57866 2.688,1.536 4.224,4.26667 1.578667,2.688 1.578667,6.016 v 9.51467 q 0,0.93866 -0.64,1.57866 -0.597333,0.59734 -1.536,0.59734 -0.938667,0 -1.578667,-0.59734 -0.597333,-0.64 -0.597333,-1.57866 v -1.57867 q -1.493333,1.83467 -3.626667,2.85867 -2.133333,1.024 -4.608,1.024 -3.072,0 -5.589333,-1.536 -2.474667,-1.536 -3.925334,-4.224 -1.408,-2.73067 -1.408,-6.05867 0,-3.328 1.536,-6.016 1.536,-2.73067 4.224,-4.26667 2.730667,-1.57866 6.016,-1.57866 z m 0,19.84 q 2.133334,0 3.840001,-1.024 1.749333,-1.06667 2.730666,-2.85867 0.981334,-1.83467 0.981334,-4.096 0,-2.26133 -0.981334,-4.096 -0.981333,-1.83467 -2.730666,-2.85867 -1.706667,-1.06666 -3.840001,-1.06666 -2.133333,0 -3.882666,1.06666 -1.706667,1.024 -2.730667,2.85867 -0.981333,1.83467 -0.981333,4.096 0,2.26133 0.981333,4.096 1.024,1.792 2.730667,2.85867 1.749333,1.024 3.882666,1.024 z"
           style="font-style:normal;font-variant:normal;font-weight:bold;font-stretch:normal;font-size:42.66666794px;font-family:Comfortaa;-inkscape-font-specification:'Comfortaa Bold';fill:#800000"
           id="path842" />
        <path
           d="m 109.37068,238.01102 q 3.072,0 5.54667,1.536 2.51733,1.536 3.92533,4.26666 1.45067,2.688 1.45067,6.016 0,3.328 -1.536,6.05867 -1.536,2.688 -4.26667,4.26667 -2.688,1.536 -5.97333,1.536 -3.28534,0 -5.97334,-1.536 -2.645331,-1.57867 -4.223998,-4.26667 -1.536,-2.73067 -1.536,-6.05867 v -19.456 q 0,-0.98133 0.597333,-1.57866 0.64,-0.59734 1.578667,-0.59734 0.981333,0 1.578668,0.59734 0.59733,0.59733 0.59733,1.57866 v 11.52 q 1.49334,-1.83466 3.62667,-2.85866 2.13333,-1.024 4.608,-1.024 z m -0.85333,19.84 q 2.13333,0 3.84,-1.024 1.74933,-1.06667 2.73066,-2.90134 1.024,-1.83466 1.024,-4.096 0,-2.26133 -1.024,-4.05333 -0.98133,-1.83467 -2.73066,-2.85867 -1.70667,-1.06666 -3.84,-1.06666 -2.13334,0 -3.88267,1.06666 -1.70667,1.024 -2.688,2.85867 -0.98133,1.792 -0.98133,4.05333 0,2.26134 0.98133,4.096 0.98133,1.83467 2.688,2.90134 1.74933,1.024 3.88267,1.024 z"
           style="font-style:normal;font-variant:normal;font-weight:bold;font-stretch:normal;font-size:42.66666794px;font-family:Comfortaa;-inkscape-font-specification:'Comfortaa Bold';fill:#800000"
           id="path844" />
        <path
           d="m 135.27468,261.69102 q -2.90133,0 -5.46133,-0.896 -2.56,-0.896 -4.01067,-2.34667 -0.55466,-0.55467 -0.55466,-1.32267 0,-1.024 0.85333,-1.664 0.81067,-0.59733 1.49333,-0.59733 0.85334,0 1.62134,0.768 0.81066,0.896 2.432,1.57867 1.62133,0.64 3.456,0.64 2.432,0 3.75466,-0.81067 1.36534,-0.81067 1.36534,-2.176 0,-1.32267 -1.32267,-2.176 -1.32267,-0.896 -4.48,-1.49333 -8.192,-1.57867 -8.192,-6.74134 0,-2.09066 1.23733,-3.54133 1.23734,-1.45067 3.24267,-2.176 2.00533,-0.72533 4.26667,-0.72533 2.77333,0 4.94933,0.896 2.21867,0.896 3.49867,2.47466 0.55466,0.68267 0.55466,1.36534 0,0.72533 -0.72533,1.32266 -0.46933,0.34134 -1.19467,0.34134 -1.10933,0 -2.00533,-0.81067 -1.06667,-0.98133 -2.26133,-1.36533 -1.19467,-0.42667 -2.90134,-0.42667 -1.96266,0 -3.24266,0.68267 -1.23734,0.64 -1.23734,1.83466 0,0.85334 0.42667,1.45067 0.42667,0.55467 1.62133,1.06667 1.19467,0.46933 3.456,0.93866 4.65067,0.93867 6.57067,2.60267 1.96267,1.664 1.96267,4.30933 0,1.96267 -1.06667,3.584 -1.06667,1.57867 -3.15733,2.51734 -2.048,0.896 -4.94934,0.896 z"
           style="font-style:normal;font-variant:normal;font-weight:bold;font-stretch:normal;font-size:42.66666794px;font-family:Comfortaa;-inkscape-font-specification:'Comfortaa Bold';fill:#800000"
           id="path846" />
      </g>
      <g
         aria-label="ζ"
         transform="matrix(0.22847185,0,0,0.2274953,6.2482076,60.775811)"
         style="font-style:normal;font-weight:normal;font-size:40px;line-height:1.25;font-family:sans-serif;letter-spacing:0px;word-spacing:0px;fill:#800000;fill-opacity:1;stroke:none"
         id="flowRoot3999">
        <path
           d="m 48.731558,50.902788 q -0.938667,0 -1.578667,-0.64 -0.64,-0.597333 -0.64,-1.578666 0,-0.981334 0.597333,-1.621334 0.64,-0.597333 1.621334,-0.597333 1.066666,0 1.834666,-0.768 0.810667,-0.768 0.810667,-1.877334 0,-1.066666 -0.810667,-1.877333 -0.768,-0.768 -1.834666,-0.768 -3.669334,0 -6.784,-1.792 -3.114667,-1.834667 -4.949334,-4.949334 -1.834667,-3.114666 -1.834667,-6.826666 0,-3.370667 1.450667,-6.101334 1.493333,-2.773333 4.736,-5.248 l 5.589334,-4.224 h -9.301334 q -0.981333,0 -1.621333,-0.597334 -0.597334,-0.64 -0.597334,-1.621333 0,-0.9386667 0.64,-1.5786667 0.64,-0.64 1.578667,-0.64 h 15.914667 q 0.938667,0 1.578667,0.64 0.682667,0.64 0.682667,1.5786667 0,1.152 -1.066667,1.92 l -10.752,8.149334 q -2.346667,1.749333 -3.370667,3.626666 -0.981334,1.877334 -0.981334,4.096001 0,2.517333 1.194667,4.608 1.237334,2.090666 3.285334,3.328 2.090666,1.194666 4.608,1.194666 1.92,0 3.541333,0.981334 1.621334,0.938667 2.56,2.602667 0.981334,1.621333 0.981334,3.498666 0,1.92 -0.981334,3.541334 -0.938666,1.621333 -2.56,2.56 -1.621333,0.981333 -3.541333,0.981333 z"
           style="font-style:normal;font-variant:normal;font-weight:bold;font-stretch:normal;font-size:42.66666794px;font-family:Comfortaa;-inkscape-font-specification:'Comfortaa Bold';fill:#004000;fill-opacity:1"
           id="path849" />
      </g>
      <g
         aria-label="Z E T A L A B S"
         transform="matrix(0.20485355,0,0,0.16110289,19.393666,69.899336)"
         style="font-style:normal;font-weight:normal;font-size:13.33333302px;line-height:1.25;font-family:sans-serif;letter-spacing:0px;word-spacing:0px;fill:#4d4d4d;fill-opacity:1;stroke:none"
         id="flowRoot4034">
        <path
           d="m 3.4955989,14.854137 q -0.2266666,0 -0.3733333,-0.16 -0.1466667,-0.16 -0.1466667,-0.36 0,-0.2 0.1066667,-0.32 L 9.9755988,5.3741374 H 3.5489323 q -0.24,0 -0.3733334,-0.12 -0.1333333,-0.12 -0.1333333,-0.3333333 0,-0.2 0.1466667,-0.3333333 0.1466666,-0.1466667 0.3733333,-0.1466667 h 7.2266664 q 0.24,0 0.373333,0.16 0.146667,0.16 0.146667,0.3733333 0,0.1733333 -0.09333,0.28 L 4.2955989,13.920804 h 6.4933331 q 0.226667,0 0.373333,0.133333 0.146667,0.12 0.146667,0.333334 0,0.2 -0.146667,0.333333 -0.146666,0.133333 -0.373333,0.133333 z"
           style="font-style:normal;font-variant:normal;font-weight:normal;font-stretch:normal;font-family:Comfortaa;-inkscape-font-specification:Comfortaa;fill:#4d4d4d;fill-opacity:1"
           id="path852" />
        <path
           d="m 17.743307,14.854137 q -0.213333,0 -0.373333,-0.146666 -0.146667,-0.16 -0.146667,-0.373334 V 4.9608041 q 0,-0.2266667 0.146667,-0.3733333 0.16,-0.1466667 0.373333,-0.1466667 h 6.253333 q 0.226667,0 0.373333,0.1466667 0.146667,0.1466666 0.146667,0.36 0,0.2133333 -0.146667,0.3599999 -0.146666,0.1333334 -0.373333,0.1333334 H 18.263307 V 9.120804 h 4.173333 q 0.226667,0 0.373333,0.1466666 0.146667,0.1466667 0.146667,0.36 0,0.2133334 -0.16,0.36 -0.146667,0.1466664 -0.36,0.1466664 h -4.173333 v 3.72 h 5.733333 q 0.226667,0 0.373333,0.146667 0.146667,0.133333 0.146667,0.346667 0,0.213333 -0.146667,0.36 -0.146666,0.146666 -0.373333,0.146666 z"
           style="font-style:normal;font-variant:normal;font-weight:normal;font-stretch:normal;font-family:Comfortaa;-inkscape-font-specification:Comfortaa;fill:#4d4d4d;fill-opacity:1"
           id="path854" />
        <path
           d="m 37.068306,4.4408041 q 0.213333,0 0.346666,0.1333333 0.133334,0.1333334 0.133334,0.3466667 0,0.2 -0.133334,0.3333333 -0.133333,0.1333333 -0.346666,0.1333333 h -3.173333 v 8.9466663 q 0,0.213334 -0.146667,0.373334 -0.146667,0.146666 -0.373333,0.146666 -0.213334,0 -0.373334,-0.146666 -0.146666,-0.16 -0.146666,-0.373334 V 5.3874707 h -3.16 q -0.213334,0 -0.346667,-0.1333333 -0.133333,-0.1333333 -0.133333,-0.3333333 0,-0.2133333 0.133333,-0.3466667 0.133333,-0.1333333 0.346667,-0.1333333 z"
           style="font-style:normal;font-variant:normal;font-weight:normal;font-stretch:normal;font-family:Comfortaa;-inkscape-font-specification:Comfortaa;fill:#4d4d4d;fill-opacity:1"
           id="path856" />
        <path
           d="m 50.791846,14.120804 q 0.05333,0.09333 0.05333,0.213333 0,0.213334 -0.16,0.373334 -0.146667,0.146666 -0.36,0.146666 -0.346667,0 -0.493334,-0.32 l -0.893333,-2.16 h -5.16 l -0.893333,2.16 q -0.106667,0.32 -0.48,0.32 -0.226667,0 -0.373334,-0.146666 -0.133333,-0.16 -0.133333,-0.373334 0,-0.133333 0.04,-0.226666 l 3.92,-9.3066669 q 0.146667,-0.36 0.506667,-0.36 0.36,0 0.493333,0.36 z m -6.64,-2.64 h 4.426667 L 46.36518,6.1341374 Z"
           style="font-style:normal;font-variant:normal;font-weight:normal;font-stretch:normal;font-family:Comfortaa;-inkscape-font-specification:Comfortaa;fill:#4d4d4d;fill-opacity:1"
           id="path858" />
        <path
           d="m 56.779763,14.854137 q -0.213333,0 -0.373333,-0.146666 -0.146667,-0.16 -0.146667,-0.373334 V 4.9608041 q 0,-0.2133333 0.146667,-0.36 0.16,-0.16 0.373333,-0.16 0.226667,0 0.373333,0.1466667 0.146667,0.1466666 0.146667,0.3733333 v 8.9066669 h 5.213333 q 0.226667,0 0.373334,0.146666 0.146666,0.133334 0.146666,0.346667 0,0.213333 -0.146666,0.36 -0.146667,0.133333 -0.373334,0.133333 z"
           style="font-style:normal;font-variant:normal;font-weight:normal;font-stretch:normal;font-family:Comfortaa;-inkscape-font-specification:Comfortaa;fill:#4d4d4d;fill-opacity:1"
           id="path860" />
        <path
           d="m 76.416846,14.120804 q 0.05333,0.09333 0.05333,0.213333 0,0.213334 -0.16,0.373334 -0.146667,0.146666 -0.36,0.146666 -0.346667,0 -0.493334,-0.32 l -0.893333,-2.16 h -5.16 l -0.893333,2.16 q -0.106667,0.32 -0.48,0.32 -0.226667,0 -0.373334,-0.146666 -0.133333,-0.16 -0.133333,-0.373334 0,-0.133333 0.04,-0.226666 l 3.92,-9.3066669 q 0.146667,-0.36 0.506667,-0.36 0.36,0 0.493333,0.36 z m -6.64,-2.64 h 4.426667 L 71.99018,6.1341374 Z"
           style="font-style:normal;font-variant:normal;font-weight:normal;font-stretch:normal;font-family:Comfortaa;-inkscape-font-specification:Comfortaa;fill:#4d4d4d;fill-opacity:1"
           id="path862" />
        <path
           d="m 82.47143,14.854137 q -0.266667,0 -0.426667,-0.133333 -0.16,-0.146667 -0.16,-0.386667 V 4.9608041 q 0,-0.2266667 0.146667,-0.3733333 0.146666,-0.1466667 0.373333,-0.1466667 h 3.24 q 0.8,0 1.44,0.3466667 0.653333,0.3333333 1.026667,0.9333333 0.386666,0.6 0.386666,1.3466666 0,0.7066666 -0.386666,1.2666666 -0.373334,0.56 -1.013334,0.8666667 0.92,0.2533333 1.453334,0.92 0.533333,0.653333 0.533333,1.653333 0,0.893334 -0.413333,1.6 -0.413334,0.693334 -1.146667,1.093334 -0.72,0.386666 -1.653333,0.386666 z m 3.173333,-6.0666663 q 0.813333,0 1.32,-0.4533334 0.52,-0.4666666 0.52,-1.2666666 0,-0.7733333 -0.506667,-1.2 Q 86.47143,5.4408041 85.644763,5.4408041 h -2.72 v 3.3466666 z m 0.226667,5.0666663 q 0.973333,0 1.573333,-0.56 0.613333,-0.573333 0.613333,-1.52 0,-0.906666 -0.613333,-1.44 -0.6,-0.5466664 -1.573333,-0.5466664 h -2.946667 v 4.0666664 z"
           style="font-style:normal;font-variant:normal;font-weight:normal;font-stretch:normal;font-family:Comfortaa;-inkscape-font-specification:Comfortaa;fill:#4d4d4d;fill-opacity:1"
           id="path864" />
        <path
           d="m 98.261849,14.987471 q -1.266667,0 -2.253333,-0.533334 -0.973334,-0.546666 -1.4,-1.466666 -0.05333,-0.09333 -0.05333,-0.213334 0,-0.186666 0.133334,-0.306666 0.146666,-0.133334 0.386666,-0.133334 0.16,0 0.293334,0.09333 0.146666,0.08 0.213333,0.24 0.306667,0.6 1.013333,0.973333 0.72,0.36 1.666667,0.36 1.093333,0 1.760001,-0.52 0.66667,-0.533333 0.66667,-1.48 0,-0.84 -0.62667,-1.413333 -0.613335,-0.573334 -1.853334,-0.7333337 -1.546667,-0.1866667 -2.44,-0.96 -0.88,-0.7866666 -0.88,-1.9199999 0,-0.8 0.426666,-1.4 0.44,-0.6133333 1.2,-0.9333333 0.773334,-0.3333333 1.746667,-0.3333333 1.053333,0 1.853331,0.4666666 0.8,0.4666667 1.25334,1.2133333 0.0933,0.1466667 0.0933,0.32 0,0.2533333 -0.24,0.4 -0.10667,0.053333 -0.24,0.053333 -0.14667,0 -0.28,-0.066667 -0.12,-0.08 -0.2,-0.2133334 -0.746668,-1.1733333 -2.253334,-1.1866666 -1.08,0 -1.706667,0.4533333 -0.626667,0.4533334 -0.626667,1.2933333 0,1.56 2.52,1.8933333 1.653338,0.24 2.466668,1.0133333 0.81333,0.7733334 0.81333,2.0400004 0,0.933333 -0.45333,1.613333 -0.45333,0.68 -1.24,1.04 -0.786668,0.346667 -1.760001,0.346667 z"
           style="font-style:normal;font-variant:normal;font-weight:normal;font-stretch:normal;font-family:Comfortaa;-inkscape-font-specification:Comfortaa;fill:#4d4d4d;fill-opacity:1"
           id="path866" />
      </g>
    </g>
  </g>
</svg>
